<?xml version="1.0" standalone="yes"?>
<svg xmlns="http://www.w3.org/2000/svg" width="185" height="130">
<path style="fill:#ffffff; stroke:none;" d="M0 0L0 130L185 130L185 0L0 0z"/>
<path style="fill:#ffffe3; stroke:none;" d="M74 12C78.2431 13.7306 83.4484 12.0377 88 12C83.5518 10.1335 78.649 11.4125 74 12z"/>
<path style="fill:#f7e8ac; stroke:none;" d="M88 11C91.4324 12.4403 95.2998 12 99 12C95.5676 10.5597 91.7002 11 88 11z"/>
<path style="fill:#fffecd; stroke:none;" d="M99 11C101.332 11.9845 103.457 11.9813 106 12C103.668 11.0155 101.543 11.0187 99 11z"/>
<path style="fill:#ffe88a; stroke:none;" d="M80 12C81.2483 12.6848 81.5484 12.7488 83 13C81.7517 12.3152 81.4516 12.2512 80 12z"/>
<path style="fill:#debb57; stroke:none;" d="M83.6667 12.3333C83.2222 12.7778 84.2778 12.7222 84.3333 12.6667C84.7778 12.2222 83.7222 12.2778 83.6667 12.3333z"/>
<path style="fill:#bf9822; stroke:none;" d="M85 12C89.7238 13.9822 95.9098 13 101 13C96.2762 11.0178 90.0902 12 85 12z"/>
<path style="fill:#d4a616; stroke:none;" d="M59 22C62.6769 23.8019 68.2618 19.7907 72 18.3889C79.7244 15.4922 87.8494 15 96 15C99.5296 15 103.145 15.9918 104 12C87.4955 14.0858 73.3962 12.1599 59 22z"/>
<path style="fill:#e8cf75; stroke:none;" d="M104.667 12.3333C104.222 12.7778 105.278 12.7222 105.333 12.6667C105.778 12.2222 104.722 12.2778 104.667 12.3333z"/>
<path style="fill:#fffcbe; stroke:none;" d="M106 12C108.052 12.8742 109.747 12.9528 112 13C109.948 12.1257 108.253 12.0472 106 12z"/>
<path style="fill:#ffffea; stroke:none;" d="M112 12L112 14C116.911 14.2547 121.148 16.5036 126 17C121.805 13.7391 117.299 12.1275 112 12z"/>
<path style="fill:#fff1b3; stroke:none;" d="M74 13C75.2484 13.6848 75.5484 13.7488 77 14C75.7516 13.3152 75.4516 13.2512 74 13z"/>
<path style="fill:#d2b365; stroke:none;" d="M77 13C78.2484 13.6848 78.5484 13.7488 80 14C78.7516 13.3152 78.4516 13.2512 77 13z"/>
<path style="fill:#caa020; stroke:none;" d="M104 13L104 16C109.916 16.2579 115.047 18.0559 121 17C116.16 14.0437 109.607 13.2414 104 13z"/>
<path style="fill:#e4c56a; stroke:none;" d="M109 13C110.248 13.6848 110.548 13.7488 112 14C110.752 13.3152 110.452 13.2512 109 13z"/>
<path style="fill:#ffffe1; stroke:none;" d="M64 15C66.7564 16.0772 69.1068 15.5316 72 15C69.2436 13.9228 66.8932 14.4684 64 15z"/>
<path style="fill:#e5cc6d; stroke:none;" d="M72 14C73.2484 14.6848 73.5484 14.7488 75 15C73.7516 14.3152 73.4516 14.2512 72 14z"/>
<path style="fill:#efcc79; stroke:none;" d="M114.667 14.3333C114.222 14.7778 115.278 14.7222 115.333 14.6667C115.778 14.2222 114.722 14.2778 114.667 14.3333z"/>
<path style="fill:#ffedb5; stroke:none;" d="M116.667 14.3333C116.222 14.7778 117.278 14.7222 117.333 14.6667C117.778 14.2222 116.722 14.2778 116.667 14.3333z"/>
<path style="fill:#d3be63; stroke:none;" d="M69.6667 15.3333C69.2222 15.7778 70.2778 15.7222 70.3333 15.6667C70.7778 15.2222 69.7222 15.2778 69.6667 15.3333z"/>
<path style="fill:#efc83b; stroke:none;" d="M84 15C86.0521 15.8742 87.7472 15.9528 90 16C87.9479 15.1258 86.2528 15.0472 84 15z"/>
<path style="fill:#ffd95e; stroke:none;" d="M90 15C92.8897 16.2129 95.8741 15.9983 99 16C96.1103 14.7871 93.1259 15.0017 90 15z"/>
<path style="fill:#e6c133; stroke:none;" d="M99 15C100.769 15.7789 102.036 15.9124 104 16C102.231 15.2211 100.964 15.0876 99 15z"/>
<path style="fill:#ffe39d; stroke:none;" d="M118.667 15.3333C118.222 15.7778 119.278 15.7222 119.333 15.6667C119.778 15.2222 118.722 15.2778 118.667 15.3333z"/>
<path style="fill:#fff7b0; stroke:none;" d="M64 16C65.2484 16.6848 65.5484 16.7488 67 17C65.7516 16.3152 65.4516 16.2512 64 16z"/>
<path style="fill:#e9c332; stroke:none;" d="M78.6667 16.3333C78.2222 16.7778 79.2778 16.7222 79.3333 16.6667C79.7778 16.2222 78.7222 16.2778 78.6667 16.3333z"/>
<path style="fill:#f7e46b; stroke:none;" d="M74 18C77.6253 19.1009 81.2607 17.3644 85 17.0903C94.3727 16.4032 104.251 16.4846 113 20.1543C117.306 21.9603 120.618 23.3335 122 28L116 28C115.146 25.4749 114.492 24.97 112 24C110.838 26.1204 109.795 27.3649 108 29C107.112 38.9969 96.4291 52.543 86 53C83.2092 57.784 82.0275 63.0416 76 64C73.7636 68.399 68.8145 72.7604 64 74C63.1614 79.3975 59.2837 82.9208 54 84C54.391 86.6263 57.027 90.3258 56.2531 92.8719C55.484 95.4019 53.0892 94.8884 51.2847 93.9221C46.927 91.5885 45.2373 88.1595 43 84C41.6399 88.946 44.3537 95.246 46 100C47.1954 99.4023 46.9774 99.5339 48 98C49.831 100.207 51.6027 102.378 54 100C59.8262 104.472 66.3614 104.441 67 96L64 96L65 89C65.9857 90.4785 66 90.2032 66 92C72.1013 90.7655 74.6005 85.4174 80 83C80.4038 75.2333 84.4344 69.2534 92 67C93.3926 62.4962 100.788 55.2482 105 53C106.071 49.5979 107.544 48.7176 111 48C112.557 43.4048 118.408 34.4438 123.054 32.6034C127.51 30.8384 131.339 32.8483 135 29C131.478 27.2579 128.802 25.5384 127 22C120.701 21.8483 116.047 18.3279 110 17.0147C98.897 14.6034 84.897 14.9378 74 18z"/>
<path style="fill:#e9ce46; stroke:none;" d="M107 16C108.248 16.6848 108.548 16.7488 110 17C108.752 16.3152 108.452 16.2512 107 16z"/>
<path style="fill:#e5c668; stroke:none;" d="M121 16L122 17L121 16z"/>
<path style="fill:#feffe8; stroke:none;" d="M49 23C53.9158 24.348 59.4959 19.8752 64 18C58.3627 15.7069 53.5463 20.0287 49 23z"/>
<path style="fill:#d5b144; stroke:none;" d="M64.6667 17.3333C64.2222 17.7777 65.2778 17.7222 65.3333 17.6667C65.7778 17.2222 64.7222 17.2778 64.6667 17.3333z"/>
<path style="fill:#f0cc38; stroke:none;" d="M74.6667 17.3333C74.2222 17.7778 75.2778 17.7222 75.3333 17.6667C75.7778 17.2222 74.7222 17.2778 74.6667 17.3333z"/>
<path style="fill:#f3e68a; stroke:none;" d="M81 17C89.1894 20.4364 100.104 17.5002 109 20L109 22C103.904 23.6382 100.664 24.5756 99 30L104 32L104 28C107.525 27.5119 110.058 27.0837 112 24C114.118 25.2176 114.845 25.867 116 28L122 28C121.159 22.834 117.541 21.583 113 19.7338C102.98 15.6535 91.5998 17 81 17z"/>
<path style="fill:#f2c13e; stroke:none;" d="M112.667 17.3333C112.222 17.7778 113.278 17.7222 113.333 17.6667C113.778 17.2222 112.722 17.2778 112.667 17.3333z"/>
<path style="fill:#cfaa10; stroke:none;" d="M118 17C120.737 21.4907 128.06 23.5775 133 25C129.163 20.8577 123.534 18.055 118 17z"/>
<path style="fill:#d0a925; stroke:none;" d="M121 17C127.482 22.8129 135.47 27.0148 141.996 33.0934C149.368 39.9598 152.213 47.3843 163 49C160.732 46.8924 157.8 45.6681 155.609 43.5046C144.982 33.0112 137.102 19.7726 121 17z"/>
<path style="fill:#ffeeb5; stroke:none;" d="M124.667 17.3333C124.222 17.7778 125.278 17.7222 125.333 17.6667C125.778 17.2222 124.722 17.2778 124.667 17.3333z"/>
<path style="fill:#ffffd3; stroke:none;" d="M126 17C129.966 20.7257 135.088 23.6768 140 26C137.141 21.1509 131.382 18.2315 126 17z"/>
<path style="fill:#d3a733; stroke:none;" d="M56 21C59.2541 22.775 61.2047 21.0551 64 19C61.1435 18.5711 58.7295 20.0347 56 21z"/>
<path style="fill:#f6d54b; stroke:none;" d="M71 18C72.2483 18.6848 72.5484 18.7488 74 19C72.7516 18.3152 72.4516 18.2512 71 18z"/>
<path style="fill:#ede292; stroke:none;" d="M73 19C75.5232 19.9902 77.3582 19.6169 80 19C77.6066 18.2592 75.5074 18.6979 73 19z"/>
<path style="fill:#f3eb9a; stroke:none;" d="M80 18C84.7483 19.9925 90.8548 19.0448 96 20C94.5215 20.9857 94.7968 21 93 21C94.8853 25.213 96.9888 29.1072 95.6821 33.9421C94.9181 36.769 92.5932 37.6726 90.6042 39.5054C86.3239 43.4495 83.0749 46.1772 78.0394 49.2091C73.4912 51.9475 70.4152 56.5535 65.9853 59.5216C57.7331 65.0509 47.4458 68.1703 43 78L41 78C38.3458 70.7305 38 63.6635 38 56L36 56C36 65.2601 36.0938 82.79 47 86C49.3628 80.2523 51.9895 74.7446 56.733 70.5532C59.8609 67.7895 63.7225 66.037 66.9066 63.3302C71.5035 59.4225 73.7672 55.3569 80 54C83.6252 47.2601 94.1701 45.9582 99.5702 40.2948C101.96 37.788 102.204 34.2203 103 31L99 30C101.247 25.0542 104.246 24.0682 109 22L109 20C99.9899 16.6257 89.4873 18 80 18z"/>
<path style="fill:#edc63d; stroke:none;" d="M115 18C116.248 18.6848 116.548 18.7488 118 19C116.752 18.3152 116.452 18.2512 115 18z"/>
<path style="fill:#fff2a4; stroke:none;" d="M126.667 18.3333C126.222 18.7778 127.278 18.7222 127.333 18.6667C127.778 18.2222 126.722 18.2778 126.667 18.3333z"/>
<path style="fill:#fbde75; stroke:none;" d="M64 21C67.1702 22.1349 69.9008 21.1599 73 20C69.8465 18.8809 67.1311 20.0084 64 21z"/>
<path style="fill:#f4ebb1; stroke:none;" d="M78 19C80.5237 20.0594 83.2579 19.6003 85.7909 20.5849C90.7539 22.5141 94.3305 27.9952 95 33C88.4014 34.7839 79.0136 40.1775 77 47L70 48C68.0601 54.871 60.9311 59.5738 55 63C58.4155 64.2473 62.9439 62.11 65.9954 60.2176C70.2747 57.5636 73.0751 53.3502 77.0602 50.3935C79.745 48.4015 83.0761 47.5573 85.7222 45.4954C87.9322 43.7733 89.223 41.2515 91.3148 39.4352C92.7393 38.1983 94.7129 37.6218 95.5231 35.787C97.3475 31.6559 93.1069 23.0573 96 21C91.1159 17.6633 83.7222 19 78 19z"/>
<path style="fill:#ffdd58; stroke:none;" d="M118 19C119.864 21.6437 121.83 21.8272 125 22C122.786 20.5992 120.496 19.8191 118 19z"/>
<path style="fill:#dabb6b; stroke:none;" d="M58 20L59 21L58 20z"/>
<path style="fill:#f1edc8; stroke:none;" d="M72 22C77.8573 21.1641 83.9086 21.3637 88 26L80 26C79.5672 31.9104 75.2445 36.7825 70.7145 40.4514C67.4375 43.1054 64.7631 43.5024 64 48L59 46C57.6359 52.542 52.0649 52.079 47 55C46.2494 51.9605 44.6212 47.7033 45.2639 44.5756C46.768 37.2563 55.0964 31.9286 59 26C43.9239 32.9065 39 48.8362 39 64L42 64C42.3481 61.771 42.6478 59.2971 45.0586 58.2863C48.8943 56.678 53.4271 60.5058 57.9992 58.6327C65.5011 55.5595 68.5715 48.2698 77 47C80.2536 40.3409 88.3597 35.8431 95 33C94.4267 24.4634 88.0779 20.001 80 20C76.8966 19.9996 74.1002 19.5966 72 22z"/>
<path style="fill:#fce8b0; stroke:none;" d="M59 26C63.3523 24.5516 67.4853 22.9348 72 22C67.2542 20.2979 62.1115 22.2615 59 26z"/>
<path style="fill:#ebebe1; stroke:none;" d="M47 55C52.4265 52.5886 58.2194 52.7824 59 46C60.8559 47.0481 61.9442 47.5125 64 48C65.3271 43.7003 68.3174 43.1353 71.5718 40.4514C76.2294 36.6102 79.805 32.0828 80 26L88 26C84.2662 19.6087 74.1941 21.1599 68 22.6551C59.1972 24.7799 47.2215 34.6306 45.098 44C44.3269 47.4023 45.9724 51.7775 47 55z"/>
<path style="fill:#ebd489; stroke:none;" d="M132 21L133 22L132 21z"/>
<path style="fill:#e9d87d; stroke:none;" d="M54 22L55 23L54 22z"/>
<path style="fill:#deae14; stroke:none;" d="M52 24L52 26C54.9284 26.0366 56.4432 25.4558 59 24C56.333 22.1577 54.9146 22.6638 52 24z"/>
<path style="fill:#f8e69c; stroke:none;" d="M52 23L53 24L52 23z"/>
<path style="fill:#fce45c; stroke:none;" d="M46 98C44.1473 93.0847 43.3977 87.9505 41.6574 83C39.1991 76.0069 35.535 68.6308 36.0556 61.0147C36.2622 57.9916 37.8745 55.7622 38.5856 52.9105C39.3552 49.8249 38.8202 46.826 40.6034 44C45.8525 35.681 54.9415 30.5081 61 23C49.8127 27.2403 43.8498 36.2405 36.402 44.8704C31.9143 50.0704 24.7498 51.4491 21.4568 58.0008C18.0265 64.8256 19.6938 75.1885 25.213 80.3696C28.3375 83.3027 32.5696 84.5088 35.6752 87.3935C39.4791 90.927 41.2236 95.5745 46 98z"/>
<path style="fill:#f9e359; stroke:none;" d="M127 23C128.85 26.2613 131.476 27.8091 135 29C130.64 32.2533 126.729 30.6845 122.13 32.6034C117.654 34.4711 111.933 43.412 111 48C107.259 48.4297 105.661 49.1863 105 53C100.456 54.4915 92.893 62.4485 92 67C84.9885 68.2735 81.2391 73.1338 80 80C83.8466 79.699 87.1851 79.1705 91 80C92.4453 72.4232 99.1224 62.8855 105.299 58.2631C107.447 56.656 110.15 56.2429 112.296 54.6975C116.858 51.4108 118.117 45.0692 122.295 41.5988C127.23 37.4996 135.391 36.3268 141 33L141 31C136.484 27.9285 132.286 24.5666 127 23z"/>
<path style="fill:#dbbd75; stroke:none;" d="M135 23L136 24L135 23z"/>
<path style="fill:#ffffd7; stroke:none;" d="M39 35C43.3823 31.9159 47.636 28.172 51 24C45.0311 25.3067 40.656 29.046 39 35z"/>
<path style="fill:#f0d386; stroke:none;" d="M51 24L52 25L51 24z"/>
<path style="fill:#d4a819; stroke:none;" d="M20 79L23 79C21.6048 74.1193 18.3971 69.2588 19.4051 64C21.0893 55.2134 28.6269 52.2317 34.7909 47.2469C38.1905 44.4977 40.2732 40.2488 43.1736 37C46.6134 33.1471 50.7698 30.0061 54 26C45.2499 25.266 39.3147 35.8074 34.6196 41.8673C30.1306 47.6611 21.9073 50.1079 18.4336 57.0895C14.6418 64.7105 18.9468 71.6092 20 79z"/>
<path style="fill:#e4ca76; stroke:none;" d="M138 25L139 26L138 25z"/>
<path style="fill:#ffffd8; stroke:none;" d="M140 26C142.719 29.2048 145.991 31.8812 148.714 35.0895C153.049 40.1973 155.227 46.9568 163 46C160.957 44.2915 158.33 43.4145 156.389 41.571C151.732 37.1491 148.456 30.7842 144 26L140 26z"/>
<path style="fill:#e8cf89; stroke:none;" d="M47 27L48 28L47 27z"/>
<path style="fill:#f3e47d; stroke:none;" d="M104 28C103.56 31.4845 103.546 35.823 101.977 39C97.971 47.1104 89.395 48.9093 83 54.1289C77.3923 58.7058 73.8537 63.8961 68.8704 68.8704C66.4391 71.2972 62.9253 72.3289 60.5988 74.7639C59.2451 76.1806 59.11 78.1514 57.9923 79.6875C55.251 83.4548 51.8301 82.9329 50 88C52.0191 89.1505 52.7234 90.0148 54 92C50.7881 90.9833 48.0422 89.3713 45 88C46.0993 90.7957 53.8762 99.1113 56.3773 93.6921C57.7479 90.7224 54.736 86.8378 54 84C59.7051 83.3503 63.5555 79.7847 64 74C68.9841 73.2737 74.4998 68.8229 76 64C82.2857 63.5117 83.8212 58.2897 86 53C96.532 54.1289 107.857 38.6691 108 29L111 28C108.54 27.1118 106.585 27.5335 104 28z"/>
<path style="fill:#e9ca7a; stroke:none;" d="M46 28L47 29L46 28z"/>
<path style="fill:#e9da7d; stroke:none;" d="M142 28L143 29L142 28z"/>
<path style="fill:#dfbf65; stroke:none;" d="M45 29L46 30L45 29z"/>
<path style="fill:#eacf73; stroke:none;" d="M143 29L144 30L143 29z"/>
<path style="fill:#d9bd64; stroke:none;" d="M44 30L45 31L44 30z"/>
<path style="fill:#e1ce8f; stroke:none;" d="M144 30L145 31L144 30z"/>
<path style="fill:#f4e586; stroke:none;" d="M102 32C101.554 40.1229 94.6638 43.9693 87.9961 47.5077C84.4005 49.4158 81.3255 49.9056 80 54C73.64 54.7997 71.4252 58.5446 66.9066 62.5363C62.917 66.0607 57.8491 68.2308 54.2245 72.1736C50.06 76.7039 48.4902 82.7016 44 87C47.2743 89.4503 49.9837 91.1083 54 92C52.9827 89.5186 52.5615 88.7356 50 88C52.122 83.8718 54.1943 83.7233 57.4051 80.9915C59.0834 79.5636 59.1673 77.1104 60.5988 75.473C62.8081 72.9459 66.407 72.0231 68.8704 69.7361C75.2233 63.838 79.1186 56.67 86.9606 51.973C93.9516 47.7857 106.295 42.2617 102 32z"/>
<path style="fill:#fae146; stroke:none;" d="M91 80C87.1565 78.8957 83.9149 79.5057 80 80C79.8714 83.7103 79.6905 87.291 80 91C76.4445 92.217 74.5844 95.4966 71 97C72.4387 101.349 77.8628 102.576 81 106C75.0947 107.113 69.8197 110.574 64 111C67.8454 113.431 75.9149 117.192 80.4715 115.103C82.9815 113.953 84.9549 110.829 87 109C84.5014 104.558 80.7655 102.006 79 97C82.4474 96.1792 86.4902 96.5294 89.7145 95.0802C93.5667 93.3489 96.3792 89.9899 100 88L100 80C104.54 79.6541 107.582 76.6801 112 76C114.199 71.6444 117.807 68.9746 119 64C126.35 63.4189 126.566 57.0659 128.255 51.0895C129.065 48.2256 130.555 45.9856 131 43C135.605 43.0545 138.31 43.4037 140 48C145.114 47.5732 150.028 47.6726 155 49C152.192 44.4494 147.604 34.8226 141.996 33.4576C138.374 32.5759 131.03 37.3124 127.576 38.8341C125.595 39.7065 123.181 40.1105 121.544 41.5988C118.032 44.7918 116.432 50.0195 113.026 53.4282C110.61 55.8464 107.121 56.2003 104.464 58.2631C98.4114 62.9613 91.8272 72.3377 91 80z"/>
<path style="fill:#e2c57e; stroke:none;" d="M146 32L147 33L146 32z"/>
<path style="fill:#dec681; stroke:none;" d="M147 33L148 34L147 33z"/>
<path style="fill:#dbc777; stroke:none;" d="M148 34L149 35L148 34z"/>
<path style="fill:#e2cd7a; stroke:none;" d="M39 35L40 36L39 35z"/>
<path style="fill:#f6de8f; stroke:none;" d="M149 35L150 36L149 35z"/>
<path style="fill:#faffe4; stroke:none;" d="M35 36L33 44C35.3221 41.5661 36.8072 39.1436 38 36L35 36z"/>
<path style="fill:#ead883; stroke:none;" d="M38 36L39 37L38 36z"/>
<path style="fill:#dcc26a; stroke:none;" d="M36 39L37 40L36 39z"/>
<path style="fill:#f1e78f; stroke:none;" d="M44 39C43.0427 40.5166 42.6128 41.3385 42 43C43.63 41.4852 44.1631 41.1447 44 39z"/>
<path style="fill:#efdf6d; stroke:none;" d="M41 42C39.9519 43.8559 39.4875 44.9442 39 47C40.775 45.3255 41.6472 44.3851 41 42z"/>
<path style="fill:#fffcee; stroke:none;" d="M158 43C159.648 43.9241 161.175 44.4494 163 45C162.014 46.4785 162 46.2032 162 48L170 54C168.194 49.7073 165.266 46.0669 163 42L158 43z"/>
<path style="fill:#fbe136; stroke:none;" d="M131 43C129.221 49.8571 126.995 62.7062 119 64C117.309 68.547 113.375 71.5335 112 76C107.46 76.3459 104.418 79.3199 100 80L100 88C95.8261 89.4156 92.9333 93.2859 88.8302 95.0802C85.784 96.4124 82.1888 96.0571 79 97C80.3115 102.398 83.6498 104.839 87 109C84.6944 110.468 83.9494 111.433 83 114L88 114C87.5279 112.584 87.1863 112.186 86 111C89.3632 110.375 92.5782 110.028 96 110C96 106.374 95.19 101.551 96.5995 98.1435C97.709 95.4615 100.692 94.5662 102.482 92.4468C105.927 88.3695 109.83 84.0096 114.295 81.0039C115.899 79.9235 117.854 79.6778 119.391 78.4414C122.559 75.8924 123.951 73.3549 128 72L128 63C134.402 62.788 137.652 56.5445 144 60C146.112 59.2778 146.819 59.3739 149 60C149.973 56.0491 150.679 52.0565 151 48C147.191 47.7099 143.799 47.3732 140 48C138.881 42.8704 135.704 43.0167 131 43z"/>
<path style="fill:#e4c461; stroke:none;" d="M33 44L34 45L33 44z"/>
<path style="fill:#f9db99; stroke:none;" d="M30 45L31 46L30 45z"/>
<path style="fill:#f6e390; stroke:none;" d="M40 45L39 51C40.2925 49.0775 41.1421 47.1601 42 45L40 45z"/>
<path style="fill:#f5e28a; stroke:none;" d="M28 46L29 47L28 46z"/>
<path style="fill:#cdab12; stroke:none;" d="M153 46C157.801 50.853 163.672 53.3355 168 59C171.129 50.623 158.902 47.6103 153 46z"/>
<path style="fill:#eedb27; stroke:none;" d="M151 47C150.654 51.3748 149.812 55.6885 149 60C143.816 58.2433 143.579 61.5413 144 66C146.861 65.9247 149.568 63.7567 150 67C154.376 60.7396 154.269 53.4846 164 55C161.296 49.7955 156.21 48.8195 151 47z"/>
<path style="fill:#dcce85; stroke:none;" d="M161 47L162 48L161 47z"/>
<path style="fill:#ead076; stroke:none;" d="M25 48L26 49L25 48z"/>
<path style="fill:#fee28b; stroke:none;" d="M163 48L164 49L163 48z"/>
<path style="fill:#c09a2e; stroke:none;" d="M21 54C23.1357 52.4511 24.4511 51.1357 26 49C23.3134 50.3241 22.3241 51.3134 21 54z"/>
<path style="fill:#ece8b9; stroke:none;" d="M68 49C65.0537 53.61 60.6907 58.1838 55.0008 59.1875C48.7616 60.2881 42.7661 53.9574 42 64L39 64L39 54C36.2709 60.5037 38.1381 68.8674 41 75C42.5425 72.1258 42.8722 68.2367 45.7199 66.2431C48.3882 64.375 52.0066 64.3478 54.9853 63.2477C61.023 61.0177 68.1429 55.2381 70 49L68 49z"/>
<path style="fill:#dfc77d; stroke:none;" d="M164 49L165 50L164 49z"/>
<path style="fill:#e2d07b; stroke:none;" d="M165 50L166 51L165 50z"/>
<path style="fill:#dcc678; stroke:none;" d="M166 51L167 52L166 51z"/>
<path style="fill:#e6cb7b; stroke:none;" d="M167 52L168 53L167 52z"/>
<path style="fill:#e1ce80; stroke:none;" d="M20 53L21 54L20 53z"/>
<path style="fill:#ffffe3; stroke:none;" d="M15 64L20 54C15.7088 56.2519 15.112 59.3658 15 64z"/>
<path style="fill:#eed811; stroke:none;" d="M151 67C150.014 65.5215 150 65.7968 150 64C147.958 64.8945 146.172 65.5363 144 66C143.697 72.5172 139.163 80.9914 134.54 85.6505C131.059 89.1586 126.507 91.0987 125 96C118.456 96.4992 119.498 100.156 115.983 104.446C113.396 107.603 109.896 108.744 106 109C111.715 111.394 116.076 107.63 121 105C120.616 108.032 119.854 110.174 116.972 111.722C113.859 113.395 110.83 112.127 110 116C119.766 113.741 129.975 109.932 138.09 103.946C141.493 101.435 144.687 99.0842 146 95C140.184 98.7965 135.682 102.59 129 105C133.558 100.674 138.379 96.2331 140 90L144 90C145.366 87.3611 146.111 86.68 149 86C149.664 83.725 149.981 81.0603 151.485 79.1458C154.638 75.1312 158.262 75.3661 160 70L162 70C162 71.7968 162.014 71.5215 163 73C164.288 70.5398 165.338 68.2601 167 66C166.712 70.5243 164.946 74.5914 164 79C171.605 73.6933 166.501 62.221 166 55C156.299 52.4066 152.708 58.3195 151 67z"/>
<path style="fill:#e7ce68; stroke:none;" d="M169.333 54.6667C169.278 54.7222 169.222 55.7778 169.667 55.3333C169.722 55.2778 169.778 54.2222 169.333 54.6667z"/>
<path style="fill:#ffffcd; stroke:none;" d="M170.333 54.6667C170.278 54.7223 170.222 55.7778 170.667 55.3333C170.722 55.2778 170.778 54.2222 170.333 54.6667z"/>
<path style="fill:#f5d03d; stroke:none;" d="M165 56C166.852 62.0241 168 66.622 168 73C171.177 67.6957 170.367 59.5464 165 56z"/>
<path style="fill:#dab42f; stroke:none;" d="M169 56L168 60C169.656 58.5957 169.751 58.0465 169 56z"/>
<path style="fill:#d5be5f; stroke:none;" d="M170.333 56.6667C170.278 56.7223 170.222 57.7778 170.667 57.3333C170.722 57.2778 170.778 56.2222 170.333 56.6667z"/>
<path style="fill:#ffffda; stroke:none;" d="M171 56C171.992 61.8607 173.949 67.023 172.007 73C169.424 80.9492 162.377 84.1135 156.289 88.8032C150.409 93.3337 144.262 100.949 140 107C146.793 104.989 150.507 97.7289 155.449 93.0401C158.462 90.1819 162.265 88.5856 165.338 85.8704C175.167 77.1862 175.621 67.7587 173 56L171 56z"/>
<path style="fill:#c9a94f; stroke:none;" d="M17.3333 58.6667C17.2778 58.7222 17.2222 59.7778 17.6667 59.3333C17.7222 59.2778 17.7778 58.2222 17.3333 58.6667z"/>
<path style="fill:#fde02c; stroke:none;" d="M128 63L128 72C123.349 72.943 122.164 75.7627 118.622 78.4414C112.481 83.0851 107.133 86.6482 101.871 92.4468C100.278 94.2029 97.6115 95.0629 96.5995 97.2994C95.0173 100.796 96 106.228 96 110C99.336 109.062 102.542 108.283 106 108L106 104C110.058 103.403 113.877 102.188 118 102C119.15 98.0343 120.939 96.6332 125 96C127.323 91.4522 131.876 89.3634 135.271 85.6505C142.758 77.4619 144.334 68.5523 143 58C136.896 58.148 133.79 62.5569 128 63z"/>
<path style="fill:#cba80d; stroke:none;" d="M170 58C169.279 61.6943 170.206 65.3493 169.456 69C168.156 75.3268 163.816 79.206 160 84C169.751 80.5976 177.098 67.3694 170 58z"/>
<path style="fill:#ecd174; stroke:none;" d="M16.3333 60.6667C16.2778 60.7222 16.2222 61.7778 16.6667 61.3333C16.7222 61.2778 16.7778 60.2222 16.3333 60.6667z"/>
<path style="fill:#efd28a; stroke:none;" d="M172 61L172 64C172.696 62.4463 172.696 62.5537 172 61z"/>
<path style="fill:#c7a032; stroke:none;" d="M16 62L16 70C17.1614 67.2301 17.1614 64.7698 16 62z"/>
<path style="fill:#ffd23a; stroke:none;" d="M19 62L19 70C20.1614 67.2301 20.1614 64.7698 19 62z"/>
<path style="fill:#fff6c0; stroke:none;" d="M15 64L15 68C15.7102 66.2405 15.7102 65.7595 15 64z"/>
<path style="fill:#f1e6a7; stroke:none;" d="M42 75L40 72C39.3032 74.4621 39.8896 75.6654 41 78L43 78C46.4964 72.5744 52.6031 69.9279 55 64C46.7114 64.1886 42.7111 66.3768 42 75z"/>
<path style="fill:#c7a64f; stroke:none;" d="M172 64L172 69C172.83 66.9695 172.83 66.0305 172 64z"/>
<path style="fill:#e9d30a; stroke:none;" d="M166 66C164.663 68.4787 164.184 70.1899 164 73C162.814 71.8137 162.472 71.4162 162 70L160 70C157.716 74.9123 153.477 75.121 150.678 79.1458C149.325 81.0916 149.326 83.7363 149 86C145.708 85.9312 144.946 86.8588 144 90L140 90C137.509 95.884 132.792 99.991 129 105C136.536 103.121 141.207 98.0967 148 95L147 92L150 92C151.439 83.0184 158.452 83.9796 165 80C164.888 75.218 167.832 70.5358 166 66z"/>
<path style="fill:#ffffd6; stroke:none;" d="M15 68C15.0688 75.695 17.9265 83.7005 26 86C21.4051 79.9254 18.1658 74.8581 15 68z"/>
<path style="fill:#e0c476; stroke:none;" d="M172 69L172 72C172.696 70.4463 172.696 70.5537 172 69z"/>
<path style="fill:#dfc468; stroke:none;" d="M16.3333 70.6667C16.2778 70.7222 16.2222 71.7778 16.6667 71.3333C16.7222 71.2778 16.7778 70.2222 16.3333 70.6667z"/>
<path style="fill:#fff7b6; stroke:none;" d="M16.3333 72.6667C16.2778 72.7222 16.2222 73.7778 16.6667 73.3333C16.7222 73.2778 16.7778 72.2222 16.3333 72.6667z"/>
<path style="fill:#c2a432; stroke:none;" d="M17 72C17.3972 74.3013 17.957 75.9045 19 78C19.9125 75.1858 19.0735 74.0173 17 72z"/>
<path style="fill:#ffe149; stroke:none;" d="M167.333 73.6667C167.278 73.7222 167.222 74.7778 167.667 74.3333C167.722 74.2778 167.778 73.2222 167.333 73.6667z"/>
<path style="fill:#ffffae; stroke:none;" d="M171.333 74.6667C171.278 74.7222 171.222 75.7778 171.667 75.3333C171.722 75.2777 171.778 74.2222 171.333 74.6667z"/>
<path style="fill:#e1d179; stroke:none;" d="M170 76L171 77L170 76z"/>
<path style="fill:#efcb67; stroke:none;" d="M19 78L20 79L19 78z"/>
<path style="fill:#d6a22f; stroke:none;" d="M20 79C21.3303 80.7525 22.2475 81.6697 24 83C23.4942 80.0262 23.0394 79.1436 20 79z"/>
<path style="fill:#e9cd82; stroke:none;" d="M169 78L170 79L169 78z"/>
<path style="fill:#edc876; stroke:none;" d="M168 79L169 80L168 79z"/>
<path style="fill:#d1ad10; stroke:none;" d="M24 80C24.9202 85.5228 30.6458 86.3412 35 89C35.9857 87.5215 36 87.7968 36 86L24 80z"/>
<path style="fill:#c2a349; stroke:none;" d="M166 80L166 82C167.635 81.4549 167.455 81.6352 168 80L166 80z"/>
<path style="fill:#f4d98c; stroke:none;" d="M22 82L23 83L22 82z"/>
<path style="fill:#c8a331; stroke:none;" d="M160 86C162.222 85.1898 163.99 84.2614 166 83C163.03 82.3018 161.579 83.4888 160 86z"/>
<path style="fill:#f6e24f; stroke:none;" d="M66 89C64.6069 91.3111 64.2348 93.3086 64 96L67 96C65.8966 103.121 60.3064 104.4 55 100C51.6984 101.184 49.8994 99.7559 47 98C49.1023 104.481 60.0021 111.645 66.9606 110.84C71.5002 110.315 76.3594 107.147 81 106C78.2554 101.78 73.3445 101.267 71 97C74.9887 95.8853 76.5716 92.9265 80 91L80 83C75.6181 84.2039 69.6389 93.745 66 89z"/>
<path style="fill:#f6c816; stroke:none;" d="M151 88C153.976 86.3001 156.673 84.8577 160 84C155.905 82.3463 152.395 83.8196 151 88z"/>
<path style="fill:#daac13; stroke:none;" d="M150 92C153.498 89.5619 157.631 87.5947 160 84C154.775 84.8305 151.744 86.9274 150 92z"/>
<path style="fill:#dec771; stroke:none;" d="M163 84L164 85L163 84z"/>
<path style="fill:#edcf86; stroke:none;" d="M26 85L27 86L26 85z"/>
<path style="fill:#cba531; stroke:none;" d="M27 85C28.2228 86.1952 28.42 86.3164 30 87C29.0198 85.2167 29.0924 85.4057 27 85z"/>
<path style="fill:#fff9d8; stroke:none;" d="M27 86C28.8894 89.2071 31.579 90.618 35 92C33.1278 88.7495 30.3366 87.6014 27 86z"/>
<path style="fill:#bb9831; stroke:none;" d="M156 87C157.659 87.4065 158.242 87.3086 160 87C158.191 86.4257 157.931 86.5347 156 87z"/>
<path style="fill:#dfc976; stroke:none;" d="M160 86L161 87L160 86z"/>
<path style="fill:#fee292; stroke:none;" d="M29 87L30 88L29 87z"/>
<path style="fill:#d1ae2d; stroke:none;" d="M30 87C31.458 88.0811 32.248 88.4361 34 89C32.686 87.3821 32.1228 87.3067 30 87z"/>
<path style="fill:#caa327; stroke:none;" d="M36 87L34 89C37.0975 94.5571 40.7776 99.3111 46 103C43.6733 97.1833 40.3634 91.5192 36 87z"/>
<path style="fill:#e2c472; stroke:none;" d="M158 87L159 88L158 87z"/>
<path style="fill:#ffdd32; stroke:none;" d="M150.333 88.6667C150.278 88.7222 150.222 89.7778 150.667 89.3333C150.722 89.2777 150.778 88.2222 150.333 88.6667z"/>
<path style="fill:#caa41e; stroke:none;" d="M152 89C149.735 92.0061 147.396 94.4637 146 98C150.331 96.1491 152.52 93.4469 154 89L152 89z"/>
<path style="fill:#ffeaa4; stroke:none;" d="M154.333 89.6667C154.278 89.7222 154.222 90.7778 154.667 90.3333C154.722 90.2777 154.778 89.2222 154.333 89.6667z"/>
<path style="fill:#e6c16a; stroke:none;" d="M35 91L36 92L35 91z"/>
<path style="fill:#ffda35; stroke:none;" d="M148 91C147.014 92.4785 147 92.2032 147 94C148.289 92.5574 148.401 92.7663 148 91z"/>
<path style="fill:#f2d383; stroke:none;" d="M153 91L154 92L153 91z"/>
<path style="fill:#e7cc76; stroke:none;" d="M37 94L38 95L37 94z"/>
<path style="fill:#d4bd6a; stroke:none;" d="M150 95L151 96L150 95z"/>
<path style="fill:#ffffd6; stroke:none;" d="M38 96C39.9297 100.94 43.1414 103.937 48 106C45.1738 102.29 41.6482 98.907 38 96z"/>
<path style="fill:#d5aa1c; stroke:none;" d="M43 97C45.5281 103.272 48.9005 104.439 53.9105 108.27C68.9357 119.758 85.7216 120 104 120C100.186 118.4 96.0908 119.348 92.0394 118.871C86.0396 118.164 78.8295 116.159 73 114.431C61.2791 110.955 52.9672 103.586 43 97z"/>
<path style="fill:#c5a241; stroke:none;" d="M146 100C147.457 98.8966 147.897 98.4566 149 97C146.876 97.8993 146.899 97.8764 146 100z"/>
<path style="fill:#d5ab0c; stroke:none;" d="M88 118C101.442 123.641 118.814 114.458 132 112C132 110.203 131.986 110.478 131 109L138 108L138 105C142.417 104.301 144.291 102.022 146 98C141.125 100.232 137.523 104.289 132.834 106.87C118.805 114.593 103.869 118 88 118z"/>
<path style="fill:#edd184; stroke:none;" d="M41 99L42 100L41 99z"/>
<path style="fill:#ebd385; stroke:none;" d="M42 100L43 101L42 100z"/>
<path style="fill:#b69a36; stroke:none;" d="M144 100L144 102C145.635 101.455 145.455 101.635 146 100L144 100z"/>
<path style="fill:#e6cf80; stroke:none;" d="M43 101L44 102L43 101z"/>
<path style="fill:#e9d31b; stroke:none;" d="M106 104L106 108C100.465 108.242 96.5411 109.87 92 113C100.028 117.268 119.755 115.913 121 105C115.57 107.031 112.007 109.933 106 110C111.119 108.303 115.43 107.135 118 102C113.806 102.089 110.063 103.071 106 104z"/>
<path style="fill:#b69820; stroke:none;" d="M138 105L138 107C139.635 106.455 139.455 106.635 140 105L138 105z"/>
<path style="fill:#dbc364; stroke:none;" d="M140 105L141 106L140 105z"/>
<path style="fill:#e4c26a; stroke:none;" d="M49 106L50 107L49 106z"/>
<path style="fill:#cea831; stroke:none;" d="M50 106C52.0956 108.518 53.9434 109.815 57 111C54.9129 108.243 53.3341 106.932 50 106z"/>
<path style="fill:#ebd582; stroke:none;" d="M139 106L140 107L139 106z"/>
<path style="fill:#f5d891; stroke:none;" d="M50 107L51 108L50 107z"/>
<path style="fill:#fffcd3; stroke:none;" d="M135 109C137.531 109.71 138.516 109.131 140 107L135 109z"/>
<path style="fill:#cfa62b; stroke:none;" d="M131 110C133.315 110.07 134.779 109.74 137 109C134.492 108.111 133.185 108.505 131 110z"/>
<path style="fill:#f7dd89; stroke:none;" d="M53 109L54 110L53 109z"/>
<path style="fill:#f1da35; stroke:none;" d="M86 111C86.4721 112.416 86.8137 112.814 88 114L81 114C84.2224 118.561 92.1917 117.421 97 116C95.2115 114.578 94.2943 114.303 92 114L96 111C92.6501 109.597 89.4789 110.172 86 111z"/>
<path style="fill:#fff9cc; stroke:none;" d="M132 112C133.58 111.316 133.777 111.195 135 110C133.42 110.684 133.223 110.805 132 112z"/>
<path style="fill:#ffe49b; stroke:none;" d="M56 111L57 112L56 111z"/>
<path style="fill:#ffffe9; stroke:none;" d="M56 113C58.5397 115.193 60.6646 115.779 64 116L64 120C70.0046 121.585 74.8741 121.051 81 121L80 123C92.9204 123 104.437 122.906 117 120C109.764 117.175 100.657 122.425 93 121.91C85.7176 121.421 77.9256 119.763 71 117.481C65.9676 115.823 61.3835 112.687 56 113z"/>
<path style="fill:#f6de9a; stroke:none;" d="M58 112L59 113L58 112z"/>
<path style="fill:#d6c47e; stroke:none;" d="M129 112L130 113L129 112z"/>
<path style="fill:#ffffe7; stroke:none;" d="M120 119L124 119L123 117C127.491 116.95 130.663 116.729 132 112C127.533 113.411 123.164 115.526 120 119z"/>
<path style="fill:#c4a42a; stroke:none;" d="M104 119C110.833 121.095 120.612 116.464 127 114C123.393 112.593 120.474 114.633 116.985 115.811C112.732 117.247 108.258 117.654 104 119z"/>
<path style="fill:#e1bd5f; stroke:none;" d="M127 113L128 114L127 113z"/>
<path style="fill:#f5d425; stroke:none;" d="M96 116C100.18 117.754 106.994 117.717 110 114C105.341 114.865 100.519 114.664 96 116z"/>
<path style="fill:#ffe9ac; stroke:none;" d="M125.667 114.333C125.222 114.778 126.278 114.722 126.333 114.667C126.778 114.222 125.722 114.278 125.667 114.333z"/>
<path style="fill:#c8ad4f; stroke:none;" d="M65.6667 115.333C65.2222 115.778 66.2778 115.722 66.3333 115.667C66.7778 115.222 65.7222 115.278 65.6667 115.333z"/>
<path style="fill:#ffefb4; stroke:none;" d="M123.667 115.333C123.222 115.778 124.278 115.722 124.333 115.667C124.778 115.222 123.722 115.278 123.667 115.333z"/>
<path style="fill:#c7a42c; stroke:none;" d="M68 116C69.5061 116.683 70.3148 116.826 72 117C70.494 116.317 69.6852 116.174 68 116z"/>
<path style="fill:#fffcd3; stroke:none;" d="M114 118C117.371 119.36 119.525 118.529 122 116L114 118z"/>
<path style="fill:#e3c873; stroke:none;" d="M70.6667 117.333C70.2222 117.778 71.2778 117.722 71.3333 117.667C71.7778 117.222 70.7222 117.278 70.6667 117.333z"/>
<path style="fill:#e0b70e; stroke:none;" d="M88 117C92.7238 118.982 98.9098 118 104 118C99.2762 116.018 93.0902 117 88 117z"/>
<path style="fill:#d7bc68; stroke:none;" d="M74.6667 118.333C74.2222 118.778 75.2778 118.722 75.3333 118.667C75.7778 118.222 74.7222 118.278 74.6667 118.333z"/>
<path style="fill:#ddc46f; stroke:none;" d="M112.667 118.333C112.222 118.778 113.278 118.722 113.333 118.667C113.778 118.222 112.722 118.278 112.667 118.333z"/>
<path style="fill:#f7d075; stroke:none;" d="M78.6667 119.333C78.2222 119.778 79.2778 119.722 79.3333 119.667C79.7778 119.222 78.7222 119.278 78.6667 119.333z"/>
<path style="fill:#dfbe63; stroke:none;" d="M107.667 119.333C107.222 119.778 108.278 119.722 108.333 119.667C108.778 119.222 107.722 119.278 107.667 119.333z"/>
<path style="fill:#ffe795; stroke:none;" d="M109 119C110.248 119.685 110.548 119.749 112 120C110.752 119.315 110.452 119.251 109 119z"/>
<path style="fill:#f3dda4; stroke:none;" d="M83.6667 120.333C83.2222 120.778 84.2778 120.722 84.3333 120.667C84.7778 120.222 83.7222 120.278 83.6667 120.333z"/>
<path style="fill:#d4bd6e; stroke:none;" d="M85 120C86.769 120.779 88.0359 120.912 90 121C88.231 120.221 86.9641 120.088 85 120z"/>
<path style="fill:#c4b15c; stroke:none;" d="M90 120C93.1633 121.327 96.5856 121 100 121C96.8367 119.673 93.4144 120 90 120z"/>
<path style="fill:#edda92; stroke:none;" d="M100 120C101.506 120.683 102.315 120.826 104 121C102.494 120.317 101.685 120.174 100 120z"/>
<path style="fill:#ffffd3; stroke:none;" d="M89 121C92.9587 122.661 97.7366 122 102 122C98.0413 120.339 93.2634 121 89 121z"/>
</svg>
